<svg xmlns="http://www.w3.org/2000/svg" viewBox="0 0 512 512">
  <rect width="512" height="512" fill="#1a1a1a" rx="80"/>
  <!-- White keys -->
  <rect x="52"  y="80" width="56" height="352" rx="6" fill="#eeebd8"/>
  <rect x="116" y="80" width="56" height="352" rx="6" fill="#eeebd8"/>
  <rect x="180" y="80" width="56" height="352" rx="6" fill="#eeebd8"/>
  <rect x="244" y="80" width="56" height="352" rx="6" fill="#eeebd8"/>
  <rect x="308" y="80" width="56" height="352" rx="6" fill="#eeebd8"/>
  <rect x="372" y="80" width="56" height="352" rx="6" fill="#eeebd8"/>
  <rect x="436" y="80" width="24" height="352" rx="6" fill="#eeebd8"/>
  <!-- Black keys: C# D# F# G# A# -->
  <rect x="134" y="80" width="36" height="216" rx="4" fill="#121212"/>
  <rect x="198" y="80" width="36" height="216" rx="4" fill="#121212"/>
  <rect x="326" y="80" width="36" height="216" rx="4" fill="#121212"/>
  <rect x="390" y="80" width="36" height="216" rx="4" fill="#121212"/>
  <rect x="454" y="80" width="16" height="216" rx="4" fill="#121212"/>
</svg>
